# xmcd
#
# Track frame offsets:
#  150
#  22699
#  39380
#  60792
#  77718
#  95589
#  115762
#  134013
#  155098
#  177060
#  198906
#  219106
#  241723
#  260472
#  279128
#  302401
#
# Disc length: 4303 seconds
#
# Revision: 0
# Processed by: cddbd v1.4PL0 Copyright (c) Steve Scherf et al.
# Submitted via: AltoMP3_Maker 3.0
#
DISCID=bd10cd10
DTITLE=许志安 - Andy hui（1）
DYEAR=1900
DGENRE=
TTITLE0=为什么你背着我爱别人
TTITLE1=你爱上他
TTITLE2=我们都要幸福
TTITLE3=上弦月
TTITLE4=一家一减你
TTITLE5=你决定就好
TTITLE6=这一秒你好不好
TTITLE7=森巴爱恰恰
TTITLE8=我害怕都是没有用
TTITLE9=爱上我的朋友
TTITLE10=对你的爱依然在
TTITLE11=负担
TTITLE12=用背叛成全背叛
TTITLE13=我不爱我自己
TTITLE14=关于你
TTITLE15=多希望你在这里
EXTD=
EXTT0=
EXTT1=
EXTT2=
EXTT3=
EXTT4=
EXTT5=
EXTT6=
EXTT7=
EXTT8=
EXTT9=
EXTT10=
EXTT11=
EXTT12=
EXTT13=
EXTT14=
EXTT15=
PLAYORDER=
